<svg xmlns="http://www.w3.org/2000/svg" width="307" height="263" fill="none" viewBox="0 0 307 263"><path fill="#aabe60" d="M0 31h89v46H0z"/><path fill="#2a5070" d="M0 134h89v129H0z"/><path fill="#1e82b6" d="M0 77h89v57H0z"/><circle cx="25.5" cy="48.5" r="5.5" fill="#000"/><circle cx="63.5" cy="48.5" r="5.5" fill="#000"/><path fill="#1e82b6" d="M109 75h89v46h-89z"/><path fill="#0e616d" d="M109 156h89v107h-89z"/><path fill="#2a5070" d="M109 121h17v35h-17z"/><circle cx="161.5" cy="87.5" r="5.5" fill="#000"/><circle cx="190.5" cy="84.5" r="5.5" fill="#000"/><path fill="#aabe60" d="M218 0h89v52h-89z"/><path fill="#1e82b6" d="M218 116h89v147h-89z"/><path fill="#2a5070" d="M218 52h89v64h-89z"/><circle cx="234.073" cy="25.264" r="5.5" fill="#000" transform="rotate(-6.332 234.073 25.264)"/><circle cx="275.219" cy="21.073" r="5.5" fill="#000" transform="rotate(-6.332 275.219 21.073)"/></svg>