<svg xmlns="http://www.w3.org/2000/svg" width="width" height="height" fill="none" viewBox="0 0 1398 263"><path fill="#aabe60" d="M0 31h89v46H0z"/><path fill="#2a5070" d="M0 134h89v129H0z"/><path fill="#1e82b6" d="M0 77h89v57H0z"/><circle cx="25.5" cy="48.5" r="5.5" fill="#000"/><circle cx="63.5" cy="48.5" r="5.5" fill="#000"/><path fill="#1e82b6" d="M109 75h89v46h-89z"/><path fill="#0e616d" d="M109 156h89v107h-89z"/><path fill="#2a5070" d="M109 121h17v35h-17z"/><circle cx="161.5" cy="87.5" r="5.5" fill="#000"/><circle cx="190.5" cy="84.5" r="5.5" fill="#000"/><path fill="#aabe60" d="M218 0h89v52h-89z"/><path fill="#1e82b6" d="M218 116h89v147h-89z"/><path fill="#2a5070" d="M218 52h89v64h-89z"/><circle cx="234.073" cy="25.264" r="5.5" fill="#000" transform="rotate(-6.332 234.073 25.264)"/><circle cx="275.219" cy="21.073" r="5.5" fill="#000" transform="rotate(-6.332 275.219 21.073)"/><path fill="currentColor" d="M473.25 151.65q-2.99-.13-9.88-.26c-6.89-.13-10.183-.173-16.77-.26q-9.75 0-21.58-.13h-24.31q-1.17-26.78-1.69-50.96c-.52-24.18-.52-31.807-.52-47.06q2.99-.13 10.4-.13 7.41-.13 16.64-.13 0 9.49-.13 20.93 0 11.44-.26 23.4-.13 11.96-.39 23.4a726 726 0 0 1-.52 20.93q13.52 0 26.26-.26 12.74-.39 22.36-.91zm29.589 0q-28.99 0-28.99-52.91 0-8.84.78-18.98 3.12-.26 8.45-.39 5.46-.13 13.91-.13-.78 13-.78 23.14 0 20.02 3.12 29.51 3.25 9.36 9.88 9.36 4.42 0 8.84-3.64 4.551-3.64 7.8-9.62-.13-10.27-.26-23.01V78.59q5.331 0 11.7.13 6.5.13 10.66.39 0 10.53-.13 21.32 0 10.79-.13 20.67 0 9.88-.13 17.68-.13 7.67-.26 11.96-5.07.26-10.53.39t-10.53.13a562 562 0 0 1-.26-8.06q-11.18 8.45-23.14 8.45m81.791 0q-11.05 0-18.07-5.33-6.89-5.46-6.89-14.17 0-7.93 5.72-14.69 5.85-6.76 16.12-11.44 10.27-4.81 23.53-6.63-4.68-11.44-12.87-11.44-4.94 0-12.74 3.77c-7.8 3.77-10.487 5.807-15.86 9.88l-3.9-13q19.37-11.05 36.66-11.05 13.52 0 21.71 7.41 8.19 7.28 11.96 23.4 3.77 15.99 3.77 42.38-2.47.13-8.84.26-6.24.26-13.52.26 0-4.16-.13-8.19-13.39 8.58-26.65 8.58m-3.51-20.41q0 4.03 3.12 6.37 3.249 2.34 8.58 2.34 9.36 0 18.07-8.06-.78-13.78-2.99-23.27a41.6 41.6 0 0 0-9.88 3.38 44.3 44.3 0 0 0-8.58 5.59q-3.77 3.12-6.11 6.76-2.21 3.51-2.21 6.89m65.02 20.02a906 906 0 0 1-.26-11.44q-.13-7.41-.26-17.03 0-9.75-.13-20.93V78.59q2.86 0 7.02.13 4.16 0 8.32.13 4.29.13 7.02.26v6.63q11.05-8.19 22.49-8.19 10.53 0 17.03 7.41c6.5 7.41 7.453 12.827 9.36 23.66q2.99 16.25 2.99 42.64-2.99 0-7.15-.13-4.16 0-8.19-.13c-4.03-.13-5.027-.173-7.02-.26q0-23.01-1.3-36.79c-1.3-13.78-2.297-15.817-4.29-19.89s-4.68-6.11-8.06-6.11q-4.16 0-8.45 3.51c-4.29 3.51-5.33 5.417-7.41 9.23a15062 15062 0 0 1-.26 20.93q0 9.88-.13 17.55a830 830 0 0 1-.26 11.57q-4.03.13-9.88.26-5.72.26-11.18.26m108.861.39q-11.05 0-18.07-5.33-6.89-5.46-6.89-14.17 0-7.93 5.72-14.69 5.85-6.76 16.12-11.44 10.27-4.81 23.53-6.63-4.68-11.44-12.87-11.44-4.94 0-12.74 3.77c-7.8 3.77-10.487 5.807-15.86 9.88l-3.9-13q19.37-11.05 36.66-11.05 13.52 0 21.71 7.41 8.19 7.28 11.96 23.4 3.77 15.99 3.77 42.38-2.47.13-8.84.26-6.24.26-13.52.26 0-4.16-.13-8.19-13.39 8.58-26.65 8.58m-3.51-20.41q0 4.03 3.12 6.37 3.249 2.34 8.58 2.34 9.36 0 18.07-8.06-.78-13.78-2.99-23.27a41.6 41.6 0 0 0-9.88 3.38 44.3 44.3 0 0 0-8.58 5.59q-3.77 3.12-6.11 6.76-2.21 3.51-2.21 6.89m157.725 20.41q-13.78 0-24.31-5.98-10.4-5.98-16.38-16.64-5.85-10.66-5.85-24.7 0-11.18 3.77-20.8t10.4-16.77q6.76-7.15 15.86-11.18t19.63-4.03q11.05 0 20.67 4.42 9.75 4.29 15.47 11.7-9.49 11.05-17.68 15.47-10.01-19.63-24.05-19.63-9.49 0-15.34 7.93-5.72 7.93-5.72 21.32 0 8.71 2.34 17.16 2.47 8.32 6.5 15.08 4.16 6.76 9.23 10.79 5.2 3.9 10.53 3.9 3.9 0 8.06-1.95 4.161-2.08 7.8-5.59 3.771-3.64 6.24-8.06l12.09 9.49q-15.86 18.07-39.26 18.07m72.015 0q-11.05 0-18.07-5.33-6.89-5.46-6.89-14.17 0-7.93 5.72-14.69 5.85-6.76 16.12-11.44 10.27-4.81 23.529-6.63-4.679-11.44-12.869-11.44-4.94 0-12.74 3.77c-7.8 3.77-10.487 5.807-15.86 9.88l-3.9-13q19.37-11.05 36.66-11.05c9.009 0 16.249 2.47 21.709 7.41 5.46 4.853 9.45 12.653 11.96 23.4 2.51 10.66 3.77 24.787 3.77 42.38-1.65.087-4.59.173-8.84.26-4.16.173-8.67.26-13.52.26 0-2.773-.04-5.503-.13-8.19q-13.389 8.58-26.649 8.58m-3.51-20.41q0 4.03 3.12 6.37 3.25 2.34 8.58 2.34c6.24 0 12.259-2.687 18.069-8.06-.52-9.187-1.52-16.943-2.99-23.27a41.6 41.6 0 0 0-9.879 3.38 44.3 44.3 0 0 0-8.58 5.59q-3.77 3.12-6.11 6.76-2.21 3.51-2.21 6.89m-4.81-56.81-4.42-3.9 24.83-23.14 24.829 23.14-4.42 3.9-20.409-12.09zm69.829 76.83c-.09-2.773-.17-6.587-.26-11.44-.09-4.94-.17-10.617-.26-17.03 0-6.5-.04-13.477-.13-20.93V78.59q2.865 0 7.02.13c2.77 0 5.55.043 8.32.13q4.29.13 7.02.26v6.63c7.37-5.46 14.86-8.19 22.49-8.19 7.02 0 12.7 2.47 17.03 7.41s7.45 12.827 9.36 23.66c1.99 10.833 2.99 25.047 2.99 42.64-1.99 0-4.38-.043-7.15-.13q-4.155 0-8.19-.13c-4.035-.13-5.03-.173-7.02-.26 0-15.34-.43-27.603-1.3-36.79s-2.3-15.817-4.29-19.89-4.68-6.11-8.06-6.11c-2.77 0-5.59 1.17-8.45 3.51s-5.33 5.417-7.41 9.23c-.09 7.367-.17 14.343-.26 20.93 0 6.587-.04 12.437-.13 17.55-.09 5.027-.17 8.883-.26 11.57-2.69.087-5.98.173-9.88.26-3.81.173-7.54.26-11.18.26m110.22.39q-8.19 0-14.82-4.68c-4.33-3.12-7.75-7.41-10.27-12.87-2.51-5.46-3.77-11.613-3.77-18.46q0-10.66 3.9-19.24c2.69-5.72 6.29-10.27 10.79-13.65 4.51-3.467 9.49-5.2 14.95-5.2q7.41 0 15.6 4.29V52.59q3 0 7.02.13c2.78 0 5.55.043 8.32.13q4.17.13 7.02.26v15.86c0 6.067-.04 12.567-.13 19.5 0 6.933-.04 13.823-.13 20.67 0 6.76-.04 13.087-.13 18.98 0 5.893-.04 10.877-.13 14.95 0 4.073-.04 6.803-.13 8.19-3.72 0-7.54-.087-11.44-.26-3.9-.087-7.1-.173-9.62-.26 0-1.127-.04-2.73-.13-4.81-5.37 3.813-11 5.72-16.9 5.72m-9.23-40.17q0 8.45 1.95 15.21 2.085 6.63 5.46 10.53 3.51 3.77 7.8 3.77c3.9 0 7.5-2.297 10.79-6.89-.08-5.113-.17-10.877-.26-17.29V97.05c-1.47-2.86-3.33-5.07-5.59-6.63-2.16-1.647-4.55-2.47-7.15-2.47-4.07 0-7.28 2.08-9.62 6.24-2.25 4.073-3.38 9.837-3.38 17.29m63.59-41.73V52.2h22.1v17.55zm.52 81.51c-.09-2.86-.17-6.717-.26-11.57-.09-4.94-.17-10.573-.26-16.9 0-6.413-.04-13.26-.13-20.54V79.89c3.9 0 7.97.043 12.22.13q6.495.13 10.14.39c0 6.327-.04 12.957-.13 19.89 0 6.933-.04 13.693-.13 20.28 0 6.5-.04 12.393-.13 17.68s-.17 9.447-.26 12.48c-3.99.173-7.8.303-11.44.39s-6.85.13-9.62.13m61.03.39q-8.19 0-14.82-4.68c-4.33-3.12-7.76-7.41-10.27-12.87s-3.77-11.613-3.77-18.46q0-10.66 3.9-19.24c2.69-5.72 6.28-10.27 10.79-13.65 4.51-3.467 9.49-5.2 14.95-5.2q7.41 0 15.6 4.29V52.59q2.985 0 7.02.13c2.77 0 5.55.043 8.32.13s5.11.173 7.02.26v15.86c0 6.067-.04 12.567-.13 19.5 0 6.933-.04 13.823-.13 20.67 0 6.76-.04 13.087-.13 18.98 0 5.893-.04 10.877-.13 14.95 0 4.073-.04 6.803-.13 8.19-3.73 0-7.54-.087-11.44-.26-3.9-.087-7.11-.173-9.62-.26 0-1.127-.04-2.73-.13-4.81-5.37 3.813-11.01 5.72-16.9 5.72m-9.23-40.17q0 8.45 1.95 15.21 2.085 6.63 5.46 10.53 3.51 3.77 7.8 3.77c3.9 0 7.5-2.297 10.79-6.89-.09-5.113-.17-10.877-.26-17.29V97.05c-1.47-2.86-3.34-5.07-5.59-6.63-2.17-1.647-4.55-2.47-7.15-2.47-4.07 0-7.28 2.08-9.62 6.24-2.25 4.073-3.38 9.837-3.38 17.29m94.98 40.17c-6.85 0-13.04-1.603-18.59-4.81s-9.97-7.54-13.26-13c-3.21-5.46-4.81-11.527-4.81-18.2 0-5.287 1-10.227 2.99-14.82a37.7 37.7 0 0 1 8.32-12.09q5.46-5.33 12.48-8.19c4.68-1.993 9.66-2.99 14.95-2.99 6.85 0 13.04 1.603 18.59 4.81s9.92 7.54 13.13 13c3.29 5.373 4.94 11.44 4.94 18.2 0 5.287-1 10.227-2.99 14.82s-4.81 8.667-8.45 12.22c-3.55 3.467-7.67 6.197-12.35 8.19-4.59 1.907-9.58 2.86-14.95 2.86m3.77-10.53c4.59 0 8.19-1.95 10.79-5.85q3.9-5.98 3.9-16.51c0-5.893-.87-11.137-2.6-15.73s-4.12-8.233-7.15-10.92-6.5-4.03-10.4-4.03c-4.59 0-8.19 1.993-10.79 5.98q-3.9 5.85-3.9 16.38c0 5.807.87 11.05 2.6 15.73 1.73 4.593 4.12 8.233 7.15 10.92 3.12 2.687 6.59 4.03 10.4 4.03M400.22 248v-42h4.44l30.96 36.48-.66 1.08q-.24-1.14-.36-3.24-.06-2.1-.18-4.62l-.12-5.22q-.06-2.7-.06-5.04V206h4.68v42h-4.62l-30.72-35.88.48-1.26q.12 1.74.18 3.78.12 2.04.24 4.2.18 2.1.24 4.08.12 1.98.12 3.54.06 1.56.06 2.46V248zm68.938.6q-5.22 0-9.36-2.04-4.08-2.04-6.36-5.7t-2.28-8.4q0-3.78 1.32-6.72 1.32-3 3.66-5.22 2.4-2.22 5.58-3.42 3.24-1.2 6.9-1.2 3.54 0 6.48 1.14 2.94 1.08 5.1 3.12t3.3 4.8 1.02 6.12l-.06 2.34h-29.64l-.66-3.78h26.88l-1.08.78v-1.44q-.12-2.16-1.56-4.14-1.44-2.04-3.96-3.3-2.52-1.32-5.82-1.32-3.72 0-6.66 1.32-2.88 1.26-4.56 3.9-1.62 2.64-1.62 6.72 0 3.72 1.74 6.42t4.86 4.2q3.18 1.5 7.56 1.5 3.24 0 5.82-.9t5.22-2.82l2.16 3.36q-1.56 1.26-3.72 2.34t-4.74 1.74q-2.58.6-5.52.6m39.732 0q-3.96 0-6.72-1.62t-4.26-4.68q-1.44-3.12-1.44-7.5v-18.12h4.56v17.04q0 3.42 1.02 5.82 1.02 2.34 3.06 3.54t4.98 1.2q2.34 0 4.32-.78 2.04-.78 3.48-2.1 1.5-1.38 2.34-3.18t.84-3.9v-17.64h4.56V248h-4.5l-.18-6.96.78-.36q-.66 2.04-2.52 3.9-1.86 1.8-4.56 2.94-2.64 1.08-5.76 1.08m32.007-.6v-31.32h4.5l.12 8.94-.84-.54q.78-2.52 2.52-4.56 1.74-2.1 4.08-3.3 2.34-1.26 5.04-1.26 1.5 0 2.88.3 1.44.24 2.28.72l-1.26 4.92q-1.02-.6-2.28-.84t-2.34-.24q-2.4 0-4.32.84-1.86.84-3.18 2.28-1.32 1.38-1.98 3.18-.66 1.74-.66 3.66V248zm44.517.6q-5.28 0-9.36-2.1-4.02-2.1-6.36-5.82-2.28-3.72-2.28-8.46 0-4.68 2.28-8.34 2.34-3.72 6.36-5.82 4.08-2.1 9.36-2.1 5.22 0 9.24 2.1 4.08 2.1 6.36 5.82 2.34 3.66 2.34 8.34 0 4.74-2.34 8.46-2.28 3.66-6.36 5.82-4.02 2.1-9.24 2.1m0-4.26q3.78 0 6.78-1.56 3.06-1.62 4.74-4.32 1.74-2.76 1.74-6.24t-1.74-6.18q-1.68-2.76-4.74-4.26-3-1.56-6.78-1.56-3.84 0-6.9 1.56-3 1.56-4.74 4.26t-1.68 6.18q-.06 3.48 1.68 6.24 1.74 2.7 4.8 4.32 3.06 1.56 6.84 1.56m30.19 16.86v-44.52h4.5l.12 7.68-.9.12q.78-2.4 2.76-4.26 2.04-1.92 4.92-3.06 2.94-1.14 6.24-1.14 4.74 0 8.4 2.1t5.76 5.82q2.16 3.66 2.16 8.4 0 4.62-2.1 8.28-2.04 3.66-5.76 5.82-3.66 2.1-8.4 2.1-3.42 0-6.42-1.2-2.94-1.2-4.98-3.12-2.04-1.98-2.88-4.32h1.14v21.3zm16.98-16.98q3.66 0 6.42-1.5 2.82-1.56 4.44-4.26 1.68-2.7 1.62-6.12 0-3.54-1.62-6.24t-4.44-4.2q-2.76-1.56-6.36-1.56-3.72 0-6.6 1.56-2.88 1.5-4.56 4.2-1.62 2.7-1.62 6.18t1.62 6.18q1.68 2.64 4.5 4.2 2.88 1.56 6.6 1.56m39.991 4.38q-4.62 0-8.4-1.5-3.72-1.5-6-4.2l3.18-2.88q2.04 2.28 4.86 3.48 2.88 1.14 6.36 1.14 1.68 0 3.24-.3t2.76-.9 1.86-1.5q.72-.96.72-2.22 0-2.04-2.4-3.36-1.2-.54-3-1.08-1.74-.54-4.08-1.02-3.6-.84-6.18-1.68-2.58-.9-4.08-2.22-1.14-1.08-1.74-2.4-.54-1.38-.54-3.06 0-1.92.9-3.54.96-1.68 2.7-2.88t4.08-1.86 5.04-.66q2.46 0 4.98.6 2.58.6 4.8 1.74 2.28 1.14 3.84 2.76l-2.64 3.06q-1.44-1.2-3.18-2.16-1.74-1.02-3.72-1.56-1.92-.54-3.9-.54-1.62 0-3.18.3-1.5.3-2.64.96-1.08.6-1.8 1.5-.66.9-.66 2.1-.06.96.36 1.68.48.66 1.26 1.2 1.14.78 3 1.32 1.92.54 4.62 1.14 3 .6 5.28 1.32 2.34.72 3.96 1.8 1.68 1.08 2.52 2.58.9 1.5.9 3.48 0 2.82-1.68 4.92t-4.62 3.3q-2.94 1.14-6.78 1.14m26.307-.6v-31.32h4.56V248zm2.22-38.22q-1.62 0-2.52-.84-.9-.9-.9-2.46 0-1.44.9-2.34.96-.96 2.52-.96 1.68 0 2.52.9.9.84.9 2.4 0 1.44-.9 2.4-.9.9-2.52.9m32.357 38.82q-4.92 0-8.76-2.1-3.84-2.16-6.12-5.82-2.22-3.72-2.22-8.4t2.22-8.34q2.28-3.72 6.12-5.82 3.84-2.16 8.82-2.16 4.5 0 8.28 1.62 3.84 1.56 6.24 4.32l-2.64 3.48q-1.38-1.5-3.3-2.64-1.86-1.2-4.08-1.86t-4.56-.66q-3.54 0-6.42 1.56-2.82 1.56-4.44 4.32-1.62 2.7-1.62 6.18t1.68 6.24q1.68 2.7 4.5 4.26t6.24 1.56q2.52 0 4.68-.6t3.96-1.68q1.86-1.08 3.3-2.4l2.58 3.42q-2.58 2.4-6.36 3.96-3.72 1.56-8.1 1.56m40.744 0q-5.28 0-9.36-2.1-4.02-2.1-6.36-5.82-2.28-3.72-2.28-8.46 0-4.68 2.28-8.34 2.34-3.72 6.36-5.82 4.08-2.1 9.36-2.1 5.22 0 9.24 2.1 4.08 2.1 6.36 5.82 2.34 3.66 2.34 8.34 0 4.74-2.34 8.46-2.28 3.66-6.36 5.82-4.02 2.1-9.24 2.1m0-4.26q3.78 0 6.78-1.56 3.06-1.62 4.74-4.32 1.74-2.76 1.74-6.24t-1.74-6.18q-1.68-2.76-4.74-4.26-3-1.56-6.78-1.56-3.84 0-6.9 1.56-3 1.56-4.74 4.26t-1.68 6.18q-.06 3.48 1.68 6.24 1.74 2.7 4.8 4.32 3.06 1.56 6.84 1.56m-3.66-32.28-1.62-2.46 8.52-7.14 2.94 3.78zm33.49 35.94v-44.4h4.5V248zm33.861.6q-5.28 0-9.36-2.1-4.02-2.1-6.36-5.82-2.28-3.72-2.28-8.46 0-4.68 2.28-8.34 2.34-3.72 6.36-5.82 4.08-2.1 9.36-2.1 5.22 0 9.24 2.1 4.08 2.1 6.36 5.82 2.34 3.66 2.34 8.34 0 4.74-2.34 8.46-2.28 3.66-6.36 5.82-4.02 2.1-9.24 2.1m0-4.26q3.78 0 6.78-1.56 3.06-1.62 4.74-4.32 1.74-2.76 1.74-6.24t-1.74-6.18q-1.68-2.76-4.74-4.26-3-1.56-6.78-1.56-3.84 0-6.9 1.56-3 1.56-4.74 4.26t-1.68 6.18q-.06 3.48 1.68 6.24 1.74 2.7 4.8 4.32 3.06 1.56 6.84 1.56m44.59 17.46q-4.2 0-7.56-1.14-3.3-1.08-5.52-2.64l1.8-3.9q1.26.9 3 1.68t3.84 1.26q2.16.54 4.56.54 3.54 0 6.18-1.38 2.64-1.32 4.08-4.02t1.44-6.78v-5.22l.78-.18q-.72 2.34-2.82 4.32-2.04 1.92-5.04 3.06t-6.42 1.14q-4.74 0-8.4-2.1t-5.82-5.76q-2.1-3.72-2.1-8.4 0-4.74 2.16-8.4 2.22-3.66 5.94-5.76 3.72-2.16 8.46-2.16 1.86 0 3.72.42 1.92.42 3.66 1.2t3.18 1.86 2.46 2.46q1.02 1.32 1.38 2.76l-1.26-.18.12-7.8h4.56v28.44q0 4.2-1.26 7.26-1.26 3.12-3.48 5.22t-5.22 3.12q-3 1.08-6.42 1.08m-.66-17.52q3.72 0 6.54-1.56 2.88-1.56 4.5-4.26t1.62-6.18q-.06-3.54-1.68-6.24-1.62-2.76-4.5-4.26-2.82-1.56-6.48-1.56t-6.54 1.56q-2.82 1.56-4.5 4.32-1.62 2.7-1.62 6.12 0 3.48 1.62 6.24 1.62 2.7 4.44 4.26 2.88 1.56 6.6 1.56m44.795 4.32q-4.8 0-8.52-2.1-3.66-2.1-5.76-5.76-2.04-3.72-2.04-8.46t2.16-8.4q2.16-3.72 5.88-5.82t8.46-2.1q2.94 0 5.4.78 2.52.78 4.38 2.16 1.92 1.38 3.12 3.12 1.2 1.68 1.5 3.48l-1.44-.42.18-8.4h4.44V248h-4.5v-8.16l1.2-.66q-.36 1.8-1.62 3.48t-3.24 3.06q-1.98 1.32-4.44 2.1t-5.16.78m.96-4.32q3.6 0 6.42-1.5 2.88-1.56 4.5-4.26 1.62-2.76 1.62-6.24 0-3.42-1.62-6.12t-4.5-4.32q-2.82-1.62-6.42-1.62-3.72 0-6.54 1.62t-4.44 4.32-1.62 6.12q0 3.48 1.56 6.18t4.38 4.26q2.88 1.56 6.66 1.56"/></svg>